# xmcd CD database file
#
# Track frame offsets:
#	150
#	18094
#	35216
#	51317
#	68663
#	85409
#	100900
#	114370
#	131455
#	144036
#	155451
#	169269
#	191233
#	200346
#
# Disc length: 2856 seconds
#
# Revision: 0
# Processed by: cddbd v1.5.1PL0 Copyright (c) Steve Scherf et al.
# Submitted via: CDex 1.50Beta7
#
DISCID=bc0b260e
DTITLE=luba mason - collage
DYEAR=2004
DGENRE=Jazz
TTITLE0=Moondance
TTITLE1=The Calm Before the Storm
TTITLE2=Look of Love
TTITLE3=6° of Azimuth
TTITLE4=Embroidered
TTITLE5=I Can See Clearly Now
TTITLE6=Cherry, Cherry
TTITLE7=Shamed Into Love
TTITLE8=Don't Shoot the Hooey to me, Louie
TTITLE9=The Riddle Song
TTITLE10=I Need You
TTITLE11=Mr. Bojangles
TTITLE12=Take Me Home
TTITLE13=Motherland
EXTD=YEAR: 2004
EXTT0=
EXTT1=
EXTT2=
EXTT3=
EXTT4=
EXTT5=
EXTT6=
EXTT7=
EXTT8=
EXTT9=
EXTT10=
EXTT11=
EXTT12=
EXTT13=
PLAYORDER=
